<?xml version="1.0" encoding="utf-8"?>
<!-- Generator: Adobe Illustrator 22.0.1, SVG Export Plug-In . SVG Version: 6.00 Build 0)  -->
<svg version="1.1" id="Layer_1" xmlns="http://www.w3.org/2000/svg" xmlns:xlink="http://www.w3.org/1999/xlink" x="0px" y="0px"
	 viewBox="0 0 89.7 89.7" style="enable-background:new 0 0 89.7 89.7;" xml:space="preserve">
<g>
	<g>
		<path d="M44.9,0C20.1,0,0,20.1,0,44.9s20.1,44.9,44.9,44.9s44.9-20.1,44.9-44.9C89.7,20.1,69.6,0,44.9,0z M61.4,64.9
			c0,0.6-0.4,1-1,1h-8c-0.6,0-1-0.4-1-1V49.3L29.9,64.8c-0.7,0.5-1.6,0-1.6-0.8V26.2c0-0.8,0.9-1.3,1.6-0.8l21.5,15.4V25.2
			c0-0.6,0.4-1,1-1h8c0.6,0,1,0.4,1,1V64.9z"/>
	</g>
</g>
</svg>
